<?xml version="1.0" encoding="UTF-8" standalone="no"?>
<!DOCTYPE svg PUBLIC "-//W3C//DTD SVG 1.0//EN"
	"http://www.w3.org/TR/2001/REC-SVG-20010904/DTD/svg10.dtd"><svg
   xmlns:svg="http://www.w3.org/2000/svg"
   xmlns="http://www.w3.org/2000/svg"
   xmlns:xlink="http://www.w3.org/1999/xlink"
   version="1.0"
   width="600.00006"
   height="599.99963"
   id="svg8378">
  <defs
     id="defs8380">
    <linearGradient
       id="linearGradient10756">
      <stop
         style="stop-color:#bc573d;stop-opacity:1"
         offset="0"
         id="stop10758" />
      <stop
         style="stop-color:#edb845;stop-opacity:1"
         offset="0.5"
         id="stop10772" />
      <stop
         style="stop-color:#bc573d;stop-opacity:1"
         offset="1"
         id="stop10760" />
    </linearGradient>
    <linearGradient
       x1="308.27011"
       y1="397.51401"
       x2="184.30196"
       y2="294.44849"
       id="linearGradient6398"
       xlink:href="#linearGradient10756"
       gradientUnits="userSpaceOnUse" />
    <linearGradient
       id="linearGradient3232">
      <stop
         style="stop-color:#bc573d;stop-opacity:1"
         offset="0"
         id="stop3234" />
      <stop
         style="stop-color:#edb845;stop-opacity:1"
         offset="0.5"
         id="stop3236" />
      <stop
         style="stop-color:#bc573d;stop-opacity:1"
         offset="1"
         id="stop3238" />
    </linearGradient>
  </defs>
  <g
     transform="translate(-1491.7195,-1150.9468)"
     style="display:none"
     id="layer1">
    <image
       xlink:href="D:\Active Documents\My Pictures\SWLogos\nr2.png"
       x="101.46429"
       y="217.97646"
       width="553.07141"
       height="545.45715"
       id="image8558" />
  </g>
  <g
     transform="translate(-1491.7195,-1150.9468)"
     style="display:inline"
     id="layer4">
    <g
       id="g2368">
      <path
         d="M 1791.687,1151.9435 C 1626.6383,1151.9435 1492.7162,1285.9305 1492.7162,1450.9791 C 1492.7162,1616.0278 1626.6383,1749.9498 1791.687,1749.9498 C 1956.7358,1749.9498 2090.7229,1616.0278 2090.7229,1450.9791 C 2090.7228,1285.9305 1956.7358,1151.9435 1791.687,1151.9435 z "
         style="fill:#ffd700;fill-opacity:1;stroke:#000000;stroke-width:1.99335551;stroke-miterlimit:4;stroke-dasharray:none;stroke-dashoffset:1.8;stroke-opacity:1"
         id="path2217" />
      <path
         d="M 1791.687,1163.0766 C 1950.6005,1163.0766 2079.6548,1292.0652 2079.6548,1450.9791 C 2079.6548,1609.8928 1950.6005,1738.8817 1791.687,1738.8817 C 1632.7735,1738.8817 1503.8495,1609.8928 1503.8495,1450.9791 C 1503.8494,1292.0658 1632.7735,1163.0766 1791.687,1163.0766 z "
         style="fill:#000000;fill-opacity:1;stroke:none;stroke-width:1.5;stroke-miterlimit:4;stroke-dasharray:none;stroke-dashoffset:1.8;stroke-opacity:1"
         id="path2219" />
      <path
         d="M 1743.7115,1182.2304 L 1740.1672,1199.7583 L 1732.5633,1193.7649 L 1734.5609,1203.3667 L 1717.2265,1198.7916 L 1730.6945,1210.5197 L 1721.6084,1214.1926 L 1730.9523,1217.2211 L 1718.322,1229.9158 L 1735.2698,1224.1161 L 1733.9165,1233.7823 L 1741.1983,1227.274 L 1745.9025,1244.5439 L 1749.3822,1227.0161 L 1756.9862,1233.0093 L 1755.053,1223.4719 L 1772.323,1227.9827 L 1758.855,1216.2546 L 1767.941,1212.5818 L 1758.6616,1209.4881 L 1771.2275,1196.7934 L 1754.3441,1202.5931 L 1755.6329,1192.9275 L 1748.3512,1199.5002 L 1743.7115,1182.2304 z M 1842.4986,1182.8746 L 1838.31,1200.2088 L 1830.8993,1193.9585 L 1832.4459,1203.5597 L 1815.3692,1198.2755 L 1828.2573,1210.5841 L 1819.1067,1213.8701 L 1828.3217,1217.3505 L 1815.1759,1229.5297 L 1832.2525,1224.4385 L 1830.5771,1233.9761 L 1838.1166,1227.7895 L 1842.112,1245.2531 L 1846.3005,1227.8539 L 1853.7112,1234.169 L 1852.1646,1224.5029 L 1869.1769,1229.787 L 1856.2244,1217.4791 L 1865.4394,1214.2568 L 1856.2244,1210.8416 L 1869.3702,1198.598 L 1852.2291,1203.6241 L 1854.0334,1194.0872 L 1846.4939,1200.2738 L 1842.4986,1182.8746 z M 1652.5928,1221.0233 L 1648.9197,1238.4866 L 1641.3157,1232.3647 L 1643.12,1242.0308 L 1625.9789,1237.1977 L 1639.2536,1249.1194 L 1630.1031,1252.6636 L 1639.3825,1255.8858 L 1626.6233,1268.4512 L 1643.5712,1262.8452 L 1642.089,1272.5114 L 1649.4997,1266.0669 L 1654.0105,1283.4015 L 1657.6836,1265.9381 L 1665.2875,1272.0601 L 1663.4188,1262.3942 L 1680.6244,1267.1629 L 1667.3497,1255.3054 L 1676.4357,1251.7612 L 1667.2207,1248.5389 L 1679.98,1236.038 L 1663.0321,1241.5153 L 1664.4498,1231.9134 L 1657.0392,1238.3579 L 1652.5928,1221.0233 z M 1932.844,1222.8276 L 1928.7842,1240.2262 L 1921.3092,1233.9117 L 1922.9846,1243.6417 L 1905.779,1238.4223 L 1918.796,1250.6017 L 1909.6455,1253.9525 L 1918.8604,1257.3679 L 1905.779,1269.6115 L 1922.9202,1264.4561 L 1921.1803,1274.0579 L 1928.7198,1267.8069 L 1932.7795,1285.2061 L 1936.8393,1267.8069 L 1944.3143,1274.1223 L 1942.6389,1264.4561 L 1959.78,1269.6115 L 1946.8275,1257.4323 L 1955.978,1254.0813 L 1946.7631,1250.6658 L 1959.8445,1238.4866 L 1942.7678,1243.5773 L 1944.4432,1233.9761 L 1936.8393,1240.2912 L 1932.844,1222.8276 z M 1583.4483,1294.8717 L 1579.7752,1312.2707 L 1572.1712,1306.2137 L 1574.04,1315.8149 L 1556.8988,1311.0468 L 1570.1091,1322.9678 L 1561.023,1326.512 L 1570.3024,1329.6699 L 1557.5432,1342.171 L 1574.491,1336.6293 L 1573.0734,1346.2955 L 1580.484,1339.8516 L 1584.9948,1357.1856 L 1588.6035,1339.7866 L 1596.2075,1345.78 L 1594.3387,1336.1782 L 1611.5443,1341.0113 L 1598.2696,1329.0251 L 1607.3556,1325.5454 L 1598.1406,1322.3238 L 1610.8354,1309.8221 L 1593.8876,1315.3638 L 1595.3697,1305.7626 L 1587.9591,1312.1421 L 1583.4483,1294.8717 z M 2000.5708,1297.5141 L 1996.64,1314.9131 L 1989.1004,1308.6623 L 1990.8403,1318.3929 L 1973.6992,1313.3017 L 1986.7806,1325.4167 L 1977.63,1328.7677 L 1986.845,1332.1829 L 1973.8925,1344.4909 L 1990.9692,1339.2067 L 1989.3582,1348.8085 L 1996.8333,1342.4934 L 2001.0863,1359.8924 L 2005.0172,1342.4934 L 2012.4923,1348.6797 L 2010.7524,1339.0136 L 2027.8935,1344.0398 L 2014.8121,1331.99 L 2024.0271,1328.5746 L 2014.7477,1325.2235 L 2027.7002,1312.915 L 2010.688,1318.1991 L 2012.299,1308.533 L 2004.7594,1314.9131 L 2000.5708,1297.5141 z M 1550.5837,1392.4345 L 1546.7817,1409.8979 L 1539.1777,1403.7121 L 1540.9821,1413.3777 L 1523.7765,1408.4802 L 1536.9868,1420.4019 L 1527.9007,1423.946 L 1537.1157,1427.2327 L 1524.2275,1439.6051 L 1541.2398,1434.1921 L 1539.7577,1443.8583 L 1547.2328,1437.4144 L 1551.4858,1454.8771 L 1555.2878,1437.4144 L 1562.8274,1443.5357 L 1561.023,1433.934 L 1578.2931,1438.8964 L 1565.0828,1426.7816 L 1574.1689,1423.3662 L 1564.9539,1420.1439 L 1577.7775,1407.6428 L 1560.7652,1413.0557 L 1562.3762,1403.454 L 1554.9656,1409.8335 L 1550.5837,1392.4345 z M 2032.5977,1395.7853 L 2028.6668,1413.1201 L 2021.1273,1406.9338 L 2022.8672,1416.5355 L 2005.6616,1411.5087 L 2018.743,1423.6879 L 2009.6569,1427.0389 L 2018.8074,1430.39 L 2005.8549,1442.6979 L 2022.9316,1437.4144 L 2021.3206,1447.0155 L 2028.7957,1440.7646 L 2033.0488,1458.0994 L 2036.9796,1440.7646 L 2044.5191,1446.9512 L 2042.7792,1437.285 L 2059.9204,1442.376 L 2046.7745,1430.2612 L 2055.9251,1426.8458 L 2046.7101,1423.495 L 2059.6627,1411.1226 L 2042.7148,1416.4712 L 2044.3258,1406.8694 L 2036.7863,1413.1201 L 2032.5977,1395.7853 z M 1561.4741,1496.1193 L 1557.6077,1513.5827 L 1550.0681,1507.3963 L 1551.808,1516.9981 L 1534.6025,1511.9712 L 1547.7483,1524.0862 L 1538.5978,1527.5015 L 1547.8772,1530.7881 L 1534.9247,1543.2249 L 1551.9369,1537.8763 L 1550.3904,1547.4137 L 1557.8654,1541.1629 L 1562.1185,1558.5619 L 1566.0494,1541.0985 L 1573.5889,1547.2851 L 1571.7845,1537.6189 L 1588.9901,1542.645 L 1575.8443,1530.5302 L 1584.9948,1527.1148 L 1575.7154,1523.8287 L 1588.7324,1511.4557 L 1571.6557,1516.8043 L 1573.2667,1507.2031 L 1565.7916,1513.5185 L 1561.4741,1496.1193 z M 2020.0962,1499.4059 L 2016.2298,1516.8687 L 2008.6903,1510.7473 L 2010.4946,1520.3491 L 1993.289,1515.4516 L 2006.4993,1527.4373 L 1997.4133,1530.9169 L 2006.6282,1534.2035 L 1993.7401,1546.6403 L 2010.7524,1541.2273 L 2009.2058,1550.8291 L 2016.6809,1544.4496 L 2020.9984,1561.8486 L 2024.8004,1544.3852 L 2032.3399,1550.5716 L 2030.5356,1540.9054 L 2047.7412,1545.8029 L 2034.5953,1533.8168 L 2043.6814,1530.337 L 2034.402,1527.0504 L 2047.2901,1514.6138 L 2030.2778,1520.0266 L 2031.8244,1510.4248 L 2024.3493,1516.8043 L 2020.0962,1499.4059 z M 1612.5109,1583.8871 L 1609.0311,1601.3507 L 1601.2982,1595.3573 L 1603.2959,1604.9591 L 1586.0259,1600.3189 L 1599.365,1612.112 L 1590.3434,1615.7206 L 1599.6872,1618.8135 L 1586.928,1631.4438 L 1603.8759,1625.8379 L 1602.5226,1635.3747 L 1609.8688,1628.9308 L 1614.5085,1646.2656 L 1617.9883,1628.7376 L 1625.6567,1634.7948 L 1623.7235,1625.1286 L 1640.9935,1629.7686 L 1627.5899,1617.9761 L 1636.6116,1614.3671 L 1627.3322,1611.2742 L 1639.9625,1598.5795 L 1623.0791,1604.3148 L 1624.4323,1594.6486 L 1617.1506,1601.1569 L 1612.5109,1583.8871 z M 1967.7707,1586.5289 L 1963.582,1603.7993 L 1956.1069,1597.5486 L 1957.718,1607.1498 L 1940.5768,1601.8662 L 1953.5293,1614.2383 L 1944.3788,1617.4606 L 1953.5293,1620.9404 L 1940.3835,1633.1196 L 1957.5246,1628.0286 L 1955.7203,1637.6304 L 1963.3243,1631.4438 L 1967.2552,1648.843 L 1971.5082,1631.5082 L 1978.9189,1637.8233 L 1977.3723,1628.1577 L 1994.3846,1633.4415 L 1981.4964,1621.1977 L 1990.647,1617.9119 L 1981.4964,1614.4315 L 1994.6423,1602.2523 L 1977.5011,1607.2789 L 1979.3055,1597.7415 L 1971.7015,1603.9281 L 1967.7707,1586.5289 z M 1694.5435,1641.6898 L 1690.5481,1659.089 L 1683.0731,1652.8381 L 1684.7486,1662.5043 L 1667.6074,1657.4132 L 1680.6244,1669.528 L 1671.5383,1672.9435 L 1680.7533,1676.2945 L 1667.7363,1688.6025 L 1684.813,1683.3831 L 1683.1376,1692.9843 L 1690.6771,1686.6691 L 1694.8657,1704.0683 L 1698.861,1686.6691 L 1706.3361,1692.9199 L 1704.6606,1683.2539 L 1721.7373,1688.3449 L 1708.6559,1676.2301 L 1717.8064,1672.8147 L 1708.5915,1669.4637 L 1721.6084,1657.1557 L 1704.5962,1662.3757 L 1706.2072,1652.7737 L 1698.7321,1659.089 L 1694.5435,1641.6898 z M 1885.8025,1643.0433 L 1881.6139,1660.4423 L 1874.2033,1654.1272 L 1875.8142,1663.7934 L 1858.6731,1658.5736 L 1871.6901,1670.8171 L 1862.4751,1674.1682 L 1871.6901,1677.5834 L 1858.6087,1689.7626 L 1875.6854,1684.6716 L 1874.0099,1694.2734 L 1881.5494,1688.0226 L 1885.6092,1705.486 L 1889.6689,1688.087 L 1897.0795,1694.4021 L 1895.4685,1684.6716 L 1912.6097,1689.9558 L 1899.6572,1677.7122 L 1908.8077,1674.4255 L 1899.5927,1670.9459 L 1912.6741,1658.7665 L 1895.5974,1663.8577 L 1897.3374,1654.256 L 1889.7334,1660.5067 L 1885.8025,1643.0433 z M 1789.9152,1661.9888 L 1785.8555,1679.4524 L 1778.3804,1673.2014 L 1780.1203,1682.8676 L 1762.9147,1677.7765 L 1775.9961,1689.8914 L 1766.91,1693.3068 L 1776.125,1696.6578 L 1763.108,1708.9658 L 1780.1847,1703.7458 L 1778.5737,1713.3476 L 1786.0488,1706.968 L 1790.2375,1724.4316 L 1794.2327,1707.0324 L 1801.7078,1713.219 L 1799.9679,1703.5528 L 1817.1091,1708.6439 L 1804.0277,1696.529 L 1813.1782,1693.1136 L 1803.9632,1689.7626 L 1816.9802,1677.4546 L 1799.9034,1682.7384 L 1801.5789,1673.137 L 1794.1039,1679.4524 L 1789.9152,1661.9888 z "
         style="fill:#ffffff;fill-opacity:1;stroke:none;stroke-width:3;stroke-miterlimit:4;stroke-dasharray:none;stroke-dashoffset:1.8;stroke-opacity:1"
         id="path2221" />
      <path
         d="M 1791.7196,1244.4795 L 1754.0863,1289.5881 C 1767.0726,1307.8427 1772.5163,1326.6346 1772.5163,1337.6603 C 1758.726,1321.0347 1750.4777,1314.8483 1740.1672,1304.5379 L 1713.5534,1332.1829 C 1750.5041,1349.8771 1769.0366,1385.1502 1769.0366,1422.0771 C 1769.0366,1443.0434 1760.6013,1489.3676 1714.9066,1487.4197 C 1681.202,1483.5089 1648.2266,1437.9583 1645.3754,1396.0435 C 1642.5328,1354.253 1664.3559,1317.4875 1694.1568,1283.7241 C 1632.9738,1319.0481 1593.7587,1382.8975 1593.7587,1442.6979 C 1593.7587,1565.27 1681.6867,1646.8455 1791.7196,1646.8455 C 1901.7524,1646.8455 1989.6804,1565.27 1989.6804,1442.6979 C 1989.6804,1382.8975 1950.4653,1319.0481 1889.2823,1283.7241 C 1919.0831,1317.4875 1940.9063,1354.253 1938.0636,1396.0435 C 1935.2125,1437.9583 1902.2372,1483.5089 1868.5325,1487.4197 C 1822.8378,1489.3676 1814.4026,1443.0434 1814.4026,1422.0771 C 1814.4026,1385.1502 1832.935,1349.8771 1869.8857,1332.1829 L 1843.2718,1304.5379 C 1832.9614,1314.8483 1824.713,1321.0347 1810.9228,1337.6603 C 1810.9228,1326.6346 1816.3665,1307.8427 1829.3527,1289.5881 L 1791.7196,1244.4795 z "
         style="fill:#0000ff;fill-opacity:1;stroke:none;stroke-width:1.99335551;stroke-miterlimit:4;stroke-dasharray:none;stroke-dashoffset:1.8;stroke-opacity:1"
         id="path2223" />
    </g>
  </g>
</svg>
